<svg version="1.1" id="Layer_1" xmlns="http://www.w3.org/2000/svg" xmlns:xlink="http://www.w3.org/1999/xlink" x="0px" y="0px"
	 width="100%" viewBox="0 0 1024 1024" enable-background="new 0 0 1024 1024" xml:space="preserve">
<path fill="#000000" opacity="1.000000" stroke="none" 
	d="
M277.706146,417.792419 
	C325.669647,325.343933 400.015472,268.120911 502.227051,248.809921 
	C571.204102,235.778000 637.547119,246.002838 699.475708,278.789673 
	C784.037903,323.559326 837.391724,393.238617 859.475342,486.522705 
	C865.214905,510.767456 867.851562,535.447510 867.091553,560.321411 
	C864.874573,632.882996 841.326904,697.664612 794.494019,753.404114 
	C747.697144,809.100830 688.317383,844.142334 617.076965,858.733337 
	C582.703003,865.773560 547.968018,866.850891 513.261475,861.432739 
	C408.017822,845.002991 330.619049,789.034668 280.390228,695.534119 
	C262.816284,662.820374 252.702454,627.534668 248.496216,590.535522 
	C241.641006,530.235718 251.248703,472.801971 277.706146,417.792419 
M414.925385,607.428589 
	C414.705841,599.608093 415.631104,591.594543 413.577667,584.042236 
	C411.765350,577.376831 416.908081,569.930420 410.776001,563.890198 
	C408.809814,561.953430 407.324921,559.436829 405.963593,556.993896 
	C401.220917,548.483154 404.165344,539.517761 413.087128,537.499451 
	C415.604187,536.929932 417.916870,535.299072 420.215027,533.968140 
	C422.197021,532.820312 423.755249,532.919495 424.696960,535.092896 
	C426.277466,538.740479 428.824921,538.063843 431.751068,537.074402 
	C441.824860,533.668091 448.628143,525.539001 456.698212,519.393188 
	C468.367889,510.505951 474.443207,497.977692 477.050049,483.312714 
	C479.633179,468.781158 481.884674,454.048126 487.956543,440.335846 
	C491.187195,433.039978 495.064056,425.948456 496.546692,418.015900 
	C497.364288,413.641418 499.146149,410.352722 503.063934,407.973755 
	C506.746033,405.737946 508.991180,403.054962 507.520844,397.725372 
	C505.792816,391.461548 508.731903,385.171143 513.442505,383.302643 
	C517.127930,381.840820 516.837646,379.782776 515.721191,377.083252 
	C514.807434,374.873718 514.025513,372.682556 515.195312,370.365662 
	C516.590088,367.603180 515.954773,365.002289 515.150879,362.183319 
	C513.086792,354.945099 511.215546,347.617432 516.631714,340.832550 
	C517.779053,339.395294 517.249023,337.824280 517.010559,336.118561 
	C516.305176,331.073273 520.510986,327.777954 525.185242,329.704498 
	C527.162354,330.519379 528.355347,329.508026 529.804199,328.839172 
	C546.564636,321.102081 564.150879,329.179443 569.250244,347.041412 
	C570.088867,349.978882 570.518860,353.032990 571.258911,356.620636 
	C572.175720,354.291199 571.213440,352.001038 572.923828,350.833984 
	C578.709412,346.886108 583.268982,340.812836 591.309204,340.732941 
	C594.760620,340.698639 598.201782,339.709045 601.649109,339.163147 
	C608.876343,338.018616 616.072144,336.538513 623.450012,336.858643 
	C632.061279,337.232239 640.049255,339.581116 645.791382,346.275055 
	C648.197327,349.079773 650.439636,351.863800 653.540283,353.876495 
	C658.046570,356.801636 659.259094,360.839508 658.110962,366.001862 
	C657.211182,370.047394 656.530029,374.184692 656.254517,378.314728 
	C655.925476,383.247101 656.332214,387.911560 662.401245,389.793427 
	C665.630615,390.794769 667.419128,393.938416 667.980835,397.050903 
	C669.529053,405.628998 670.267395,414.122498 665.402527,422.248260 
	C662.132690,427.709686 658.806152,433.562286 662.984375,440.232788 
	C663.309937,440.752472 663.211182,441.532074 663.331787,442.186829 
	C665.006287,451.282318 664.017944,460.470856 664.268982,469.615112 
	C664.447449,476.115173 664.988220,476.649872 670.769714,474.308380 
	C680.054749,470.548065 689.587708,467.606262 699.311462,465.254303 
	C708.544617,463.021088 717.882202,461.397400 727.361145,460.672821 
	C728.817078,460.561554 730.539368,460.281006 730.989990,462.338715 
	C731.334717,463.912567 730.973145,465.494629 729.520020,466.271301 
	C728.398254,466.870850 726.992554,467.042999 725.689148,467.183533 
	C706.696655,469.231171 688.397949,473.947021 670.659729,481.036591 
	C665.791382,482.982361 664.819397,486.203033 665.718933,490.872650 
	C667.734497,491.011414 669.202942,490.200897 670.719910,489.554016 
	C682.701538,484.444489 695.018555,480.374359 707.808228,477.845245 
	C713.357239,476.747955 718.945618,475.834198 724.538025,474.980438 
	C726.265015,474.716766 728.520264,474.254608 728.886230,476.922943 
	C729.230286,479.431488 728.116638,481.118896 725.343811,481.285034 
	C724.845581,481.314850 724.348877,481.384430 723.854004,481.453766 
	C705.278259,484.056122 687.359924,488.963379 670.194458,496.592102 
	C667.275085,497.889526 665.610962,499.495453 664.734863,502.913361 
	C663.096252,509.305359 664.435120,515.104675 666.963196,520.673523 
	C669.965759,527.287720 669.507141,533.224609 665.149963,538.942383 
	C657.313049,549.226562 643.763550,549.613770 635.686035,539.804016 
	C635.295593,539.329895 634.705627,539.020142 634.245361,538.662476 
	C627.778625,544.188721 627.682129,545.832947 633.301880,551.403503 
	C635.195251,553.280334 637.102234,555.146057 638.932800,557.083130 
	C640.337769,558.569885 641.869995,560.273926 639.795654,562.205505 
	C637.881531,563.987854 636.139648,562.745667 634.530701,561.360962 
	C633.170776,560.190613 632.175415,558.516602 629.837402,558.030090 
	C628.250000,562.134705 625.171021,560.015137 622.150452,559.256714 
	C620.995728,562.483582 616.909363,564.273804 617.524902,567.811829 
	C618.641785,574.231689 619.264404,580.654053 619.601196,587.136292 
	C619.651672,588.106506 620.146484,589.084167 621.426697,589.167236 
	C622.703918,588.875061 623.250427,587.787598 623.886292,586.831177 
	C637.048218,567.034363 654.157715,551.500854 674.756287,539.744995 
	C688.035156,532.166626 702.284241,527.135010 717.163147,523.823425 
	C718.797791,523.459595 721.114746,522.280701 721.896545,524.813416 
	C722.649231,527.251953 721.106018,528.919006 718.767639,529.706970 
	C717.825195,530.024475 716.830811,530.185364 715.863892,530.432617 
	C707.625000,532.539429 699.372192,534.748352 691.732361,538.494324 
	C651.529419,558.206360 620.296692,585.341797 613.555054,632.912842 
	C612.104065,643.151184 612.639099,644.699707 621.802063,643.607788 
	C636.837585,641.816162 651.831299,639.675598 666.859009,637.814636 
	C670.970825,637.305481 672.238770,635.696716 671.065857,631.504211 
	C667.074768,617.238037 663.367310,602.892456 659.560486,588.574829 
	C658.944336,586.257141 657.821350,583.989014 658.453796,581.551331 
	C660.481995,580.954041 662.024658,581.722168 663.601379,582.157532 
	C678.366211,586.234375 693.115845,590.366943 707.895203,594.390259 
	C713.428589,595.896545 714.021057,595.286804 714.777588,589.529602 
	C716.229553,578.480042 717.797302,567.445312 719.372070,556.412292 
	C721.792664,539.452759 724.289124,522.503967 726.699890,505.542999 
	C729.953735,482.650543 733.167480,459.752380 736.378723,436.853882 
	C739.520203,414.452332 742.578064,392.038757 745.826172,369.652771 
	C746.328369,366.191589 746.027771,362.416229 748.977905,358.178741 
	C758.641846,438.107117 770.690979,516.517090 781.427490,595.725342 
	C800.513489,590.686340 818.510071,585.935059 837.881653,580.820679 
	C832.452881,600.677795 827.488464,618.836243 822.487854,637.127258 
	C827.333618,638.275208 830.769836,638.797852 832.266296,633.436646 
	C838.332458,611.704041 841.985413,589.613037 842.917847,567.060913 
	C843.063660,563.533264 841.752075,561.234619 839.021057,559.030701 
	C821.595825,544.968994 801.963623,535.529785 780.219238,530.388367 
	C777.115112,529.654419 772.905334,529.114319 774.242615,524.901062 
	C775.422974,521.182312 779.139893,523.798279 781.573120,524.338623 
	C801.862915,528.843689 820.249084,537.575989 837.079346,549.703796 
	C838.591553,550.793518 839.903259,552.662476 842.251648,551.916260 
	C843.157349,549.938416 842.842896,547.912048 842.889038,545.936768 
	C843.169922,533.903015 841.391907,522.053284 839.954712,510.149994 
	C839.270630,504.484344 836.766663,501.352814 831.701538,498.983093 
	C812.530579,490.014038 792.553223,483.974579 771.546875,481.425232 
	C768.696960,481.079346 767.021545,479.871521 767.388733,477.049347 
	C767.830383,473.654480 770.598694,474.846436 772.543274,475.102722 
	C792.654602,477.753662 811.973694,483.200012 830.441406,491.641907 
	C832.153625,492.424591 833.783142,493.872314 836.254395,493.104309 
	C835.721558,489.349091 836.045776,485.543213 831.573730,483.539825 
	C812.571838,475.027191 792.717651,469.718231 772.069275,467.279114 
	C769.178650,466.937653 765.134460,467.527435 765.608337,463.112091 
	C766.076843,458.746674 770.134460,460.659882 772.452148,460.940979 
	C790.371277,463.114380 807.811707,467.334564 824.665771,473.886200 
	C826.767517,474.703186 828.762146,476.146179 831.239929,475.660278 
	C831.357788,468.246246 830.305420,466.684204 823.938721,464.729034 
	C820.754333,463.751129 819.774658,460.134369 821.908264,457.480927 
	C822.836365,456.326691 824.762573,456.329712 825.203918,454.449005 
	C824.905701,453.450653 824.653442,452.309875 824.231384,451.235809 
	C810.988708,417.532867 792.663086,386.878815 767.723511,360.584595 
	C702.612549,291.936951 622.769165,261.288055 528.358459,269.150513 
	C497.199463,271.745453 467.332733,279.713409 439.010345,292.806854 
	C369.360199,325.006165 319.921814,376.828888 290.551514,447.691162 
	C280.216583,472.626526 274.190765,498.733582 271.387268,525.526062 
	C269.372162,544.784119 269.619751,564.135986 271.405975,583.404724 
	C272.587830,596.154236 274.725616,608.800171 277.810822,621.258911 
	C278.525177,624.143555 279.754364,625.909668 283.243713,625.746094 
	C304.080414,624.769165 323.891541,629.776245 343.341278,636.540283 
	C369.683258,645.701172 393.652283,658.622925 411.881592,680.478821 
	C412.578583,681.314453 413.261536,682.467224 415.507660,681.744812 
	C415.486481,657.460144 416.460480,632.935242 414.925385,607.428589 
M616.375488,687.899841 
	C617.009338,691.586487 620.179810,691.236328 622.637268,691.548889 
	C640.132874,693.774353 657.647766,695.847900 675.153625,697.993469 
	C681.510315,698.772644 681.862183,699.414490 680.109619,705.619263 
	C676.308716,719.075928 672.564331,732.548523 668.798767,746.015198 
	C667.893127,749.253784 668.627258,751.020264 672.419556,750.033264 
	C673.708435,749.697815 675.004517,749.389526 676.291992,749.049072 
	C689.168701,745.644104 702.040955,742.222290 714.923096,738.838196 
	C717.408508,738.185242 719.819336,737.421021 720.301147,741.479065 
	C721.516663,751.718079 722.895569,761.940186 724.396667,772.141479 
	C724.939941,775.833618 725.116638,779.676208 726.990234,783.393127 
	C731.619568,781.301941 729.715332,777.503296 729.373779,774.707642 
	C726.549744,751.593811 723.523254,728.503906 720.396606,705.428711 
	C720.013916,702.604126 720.735535,700.678772 722.653076,698.759277 
	C730.185608,691.218994 737.631958,683.592407 745.106567,675.994263 
	C745.948242,675.138672 746.806396,674.371460 749.165466,675.291199 
	C749.165466,704.781311 749.165466,734.671875 749.165466,765.840637 
	C759.571716,756.771362 767.969604,748.040405 775.573059,738.540649 
	C776.162659,737.804077 776.913452,736.734131 776.781982,735.955444 
	C775.675659,729.400940 777.995728,723.181213 778.492920,716.793579 
	C778.743225,713.576416 778.688293,710.220215 780.750183,707.154663 
	C784.407776,708.788513 786.181885,712.234192 789.015747,714.440369 
	C790.321899,715.457275 791.767090,717.105469 793.234924,715.155640 
	C797.486938,709.507385 801.678589,703.783813 804.493408,696.438660 
	C796.753296,696.147766 789.969666,697.989746 783.086365,698.597351 
	C781.213440,698.762695 779.437927,699.139648 777.934326,697.662903 
	C770.099365,689.967773 762.252014,682.285095 754.466125,674.540649 
	C753.697266,673.775879 752.738098,672.890747 753.036926,671.394470 
	C754.860413,669.523315 757.330811,670.095093 759.552673,670.109436 
	C777.041077,670.222168 794.528748,670.466431 812.017090,670.594849 
	C814.794250,670.615295 818.122437,671.089600 819.579895,667.977722 
	C822.942688,660.797852 826.092285,653.504944 828.109436,645.835815 
	C824.989197,643.566406 821.633606,644.034729 818.605591,643.679016 
	C814.472351,643.193604 814.161133,641.327332 815.126953,637.960144 
	C817.971619,628.042419 820.687378,618.087341 823.400208,608.132263 
	C824.863831,602.761353 826.218384,597.360596 827.576294,592.149109 
	C825.181458,590.662720 823.460205,591.585754 821.731506,592.037231 
	C810.780090,594.897034 799.842285,597.809265 788.879211,600.623413 
	C776.194458,603.879578 775.992432,603.868958 774.292969,591.041443 
	C770.339844,561.202698 766.387756,531.361084 762.816101,501.475159 
	C759.184082,471.084747 755.003784,440.775177 750.378723,410.524994 
	C750.060120,408.441376 750.328552,405.923004 747.747803,403.620667 
	C747.233276,406.490997 746.759583,408.699310 746.450134,410.930389 
	C744.325745,426.247864 742.274597,441.575531 740.127319,456.889709 
	C733.498779,504.165680 726.835938,551.436829 720.191833,598.710632 
	C719.420898,604.195801 718.925415,604.563477 713.418884,603.039734 
	C700.265625,599.399841 687.122437,595.723572 673.981750,592.038269 
	C668.589600,590.526062 667.562866,591.398315 668.957397,596.919434 
	C672.379761,610.468628 675.784729,624.026611 679.549988,637.482178 
	C680.652283,641.421387 679.963867,642.899719 675.861511,643.389954 
	C663.148254,644.909058 650.457031,646.624268 637.776489,648.400452 
	C633.334839,649.022644 628.760437,649.343018 623.548950,651.970581 
	C629.445068,653.606140 634.258118,653.075684 638.948730,652.496094 
	C663.718750,649.435364 688.469299,646.216248 713.217285,642.980164 
	C716.112427,642.601624 718.313416,643.306824 720.382324,645.417480 
	C727.379333,652.555847 734.520020,659.553162 741.578125,666.631836 
	C742.474854,667.531189 743.698853,668.354492 743.222961,670.044250 
	C741.764771,671.539856 739.823364,671.048157 738.068481,671.057129 
	C723.407043,671.132019 708.745300,671.138916 694.083618,671.166504 
	C670.590637,671.210632 647.097412,671.214783 623.604736,671.324219 
	C616.672791,671.356506 614.666626,673.802002 615.500427,680.630554 
	C615.762573,682.777405 616.034485,684.922974 616.375488,687.899841 
M514.970459,684.618042 
	C507.902710,683.534546 500.830170,682.481018 493.769073,681.355652 
	C489.815430,680.725586 487.748505,681.848389 488.208160,686.321655 
	C488.689117,691.002014 488.498779,695.559570 485.203583,699.545349 
	C483.155151,702.023071 484.288086,704.631470 486.215851,706.764343 
	C488.717285,709.531982 489.882721,712.778931 489.461304,716.399597 
	C489.032867,720.080261 487.204041,723.780029 491.182129,726.820435 
	C491.996063,727.442566 491.175049,729.025330 490.524475,730.029602 
	C489.794983,731.155701 488.899963,732.326599 489.228394,733.702332 
	C490.798523,740.279175 491.366089,747.382629 494.306946,753.295776 
	C507.995300,780.818909 531.417847,798.486877 557.234558,813.519287 
	C559.828552,815.029724 561.703430,814.327698 562.990906,811.831055 
	C564.570190,808.768555 565.763977,805.779846 562.482788,802.814514 
	C559.984741,800.556885 560.047119,798.001282 562.395325,795.389221 
	C567.268005,789.969055 568.079590,781.161377 564.528687,774.873108 
	C550.696777,750.378601 541.672363,724.296021 538.561707,696.252747 
	C537.641357,687.956055 537.576660,687.960876 529.313843,686.665100 
	C528.707336,686.569946 528.033752,686.275146 527.526062,687.124817 
	C529.348877,689.324280 531.157593,691.696594 528.599304,694.489807 
	C526.934814,696.307007 524.839294,696.660278 522.783081,695.076660 
	C518.768127,691.984558 521.810120,689.074524 523.767639,685.950928 
	C520.704285,685.500671 518.256226,685.140808 514.970459,684.618042 
M715.519714,758.930908 
	C715.230774,756.956848 714.917786,754.986023 714.657349,753.008179 
	C713.872925,747.049988 713.152161,746.611328 707.254028,748.212097 
	C692.166748,752.306763 677.069580,756.364807 661.972961,760.424927 
	C660.578735,760.799866 659.163086,761.652039 657.704102,760.452942 
	C656.884460,758.762146 657.764587,757.232300 658.203857,755.672241 
	C662.352478,740.940613 666.551697,726.223083 670.647949,711.476990 
	C672.355042,705.331726 672.052979,705.034668 665.893860,704.243347 
	C651.545105,702.399841 637.186584,700.621887 622.863831,698.592712 
	C618.572998,697.984802 617.497925,699.777039 617.750061,703.546387 
	C618.306335,711.861267 618.379456,720.184875 617.724792,728.497925 
	C617.599915,730.083008 617.977173,731.482422 618.637146,732.824646 
	C634.552429,765.191650 658.918274,788.716919 692.071594,803.091187 
	C694.817993,804.281921 697.124084,804.069580 699.575439,802.497620 
	C705.040283,798.993225 710.516724,795.499268 716.105042,792.198486 
	C718.639771,790.701294 719.292053,788.920837 718.876831,786.040405 
	C717.620056,777.322266 716.668579,768.560181 715.519714,758.930908 
M450.098602,703.496948 
	C444.964935,697.109863 445.302765,689.120056 443.952026,681.688904 
	C443.176025,677.419617 442.925323,673.207031 438.381470,670.573853 
	C443.436371,667.623413 441.768066,662.977905 442.086395,659.059021 
	C442.812042,650.125977 444.664520,640.802307 441.731873,632.296021 
	C436.536438,617.226196 439.835175,604.574524 449.690002,592.898499 
	C457.879242,583.195801 466.812531,574.291992 477.499603,567.316895 
	C480.327637,565.471130 481.049896,563.485291 479.617035,560.201050 
	C477.055084,554.328674 477.573120,552.481445 483.852692,551.320435 
	C493.372101,549.560303 495.751709,540.291260 502.246460,535.480408 
	C502.725128,535.125854 502.873291,533.834778 502.668610,533.125244 
	C500.984375,527.287109 503.910126,523.211792 507.686615,519.395569 
	C510.062408,516.994751 509.988586,514.508911 507.730072,511.748566 
	C504.839386,513.763977 504.562714,517.500122 501.644196,519.510559 
	C494.958862,524.115601 488.472504,529.020752 482.776245,534.922241 
	C476.274567,541.658081 469.033325,547.526855 460.631226,551.826904 
	C458.997437,552.663025 457.255280,553.487915 456.310974,555.120483 
	C453.148712,560.587524 447.547943,562.041931 442.523651,560.791626 
	C436.407928,559.269836 431.513245,561.530945 426.149628,562.866516 
	C423.622803,563.495605 422.108734,565.141113 422.505585,567.468262 
	C424.157410,577.154236 420.485901,586.569031 421.365814,596.224670 
	C421.954071,602.679871 422.019714,609.199402 422.008362,615.689575 
	C421.963470,641.327087 421.807404,666.964417 421.645691,692.601562 
	C421.635742,694.179077 422.052673,695.544617 422.763336,696.880371 
	C428.454071,707.576843 431.624756,719.103210 433.981476,730.899353 
	C434.553375,733.761902 434.095337,736.912842 436.544495,739.763489 
	C440.800995,737.699829 445.156952,735.752441 449.339722,733.485474 
	C451.224487,732.463989 451.778809,730.281067 451.633575,728.231812 
	C451.140198,721.269226 450.422058,714.328857 451.640991,707.351929 
	C451.811737,706.374634 450.930298,705.213501 450.098602,703.496948 
M639.790588,774.701965 
	C630.714233,765.284668 623.249939,754.592407 616.554321,743.542908 
	C613.959045,744.877686 613.994141,746.570251 613.706482,747.938660 
	C610.600464,762.716064 607.614197,777.518555 604.520386,792.298584 
	C603.969971,794.928040 605.075562,796.809082 606.698853,798.584473 
	C615.932556,808.682800 626.064819,817.759338 637.202576,825.732605 
	C639.796692,827.589661 642.195007,827.716980 645.120728,826.756104 
	C657.781067,822.598267 670.115295,817.654907 682.071533,811.780151 
	C683.608154,811.025085 685.666077,810.698547 686.138428,807.835144 
	C669.140808,799.579468 653.552734,788.985718 639.790588,774.701965 
M525.023193,656.413879 
	C529.283203,655.169495 533.939636,655.918823 538.224854,653.985779 
	C538.078430,644.932556 540.346313,636.270264 541.253174,626.578796 
	C537.538086,630.489563 534.165649,633.423950 530.346130,635.782898 
	C528.347778,637.017090 526.199707,638.278015 523.787903,637.212219 
	C520.729736,635.860718 517.572205,636.123108 514.443665,636.336670 
	C505.739014,636.930786 499.546875,633.715088 496.715820,625.114563 
	C495.649017,621.873840 493.874786,621.954590 491.475128,623.826965 
	C490.077911,624.917114 489.511963,626.342285 488.800385,627.876526 
	C484.868988,636.353394 484.932404,645.315186 485.279236,654.329834 
	C485.509857,660.323181 486.615417,661.564453 492.523712,660.875916 
	C503.092865,659.644043 513.617493,658.030151 525.023193,656.413879 
M570.751160,692.493896 
	C568.629211,692.116150 566.510071,691.721863 564.384827,691.364014 
	C559.987610,690.623657 558.794861,692.725647 559.384277,696.759888 
	C561.382874,710.438782 564.568726,723.810364 569.547729,736.721375 
	C570.029175,737.969971 570.040833,739.825134 572.293823,739.994141 
	C572.606506,739.513550 573.131958,739.027100 573.268311,738.448853 
	C575.857483,727.467468 578.370605,716.468018 580.979492,705.491394 
	C581.495911,703.318848 580.712158,701.803040 578.907837,700.962646 
	C575.259521,699.263428 572.989807,696.410583 570.751160,692.493896 
M546.260986,703.424500 
	C548.296631,717.117798 552.094543,730.344238 556.876831,743.304199 
	C560.047058,751.895752 563.911804,760.174988 568.334229,768.191284 
	C569.157104,769.682922 570.223755,771.180664 572.219482,770.560730 
	C574.057251,769.989624 573.723694,768.228394 573.765381,766.753967 
	C573.857788,763.484253 572.649780,760.577698 571.270691,757.714783 
	C564.103943,742.836609 558.463562,727.420593 555.216125,711.200928 
	C554.011475,705.184326 553.156555,699.096069 552.217773,693.028748 
	C551.820251,690.459900 550.532776,689.214172 547.865906,689.352112 
	C544.865662,689.507385 544.971863,691.630981 545.132263,693.644043 
	C545.369385,696.619507 545.804199,699.579163 546.260986,703.424500 
M518.390991,672.143860 
	C515.921814,674.763000 515.412292,677.116455 519.783264,677.831909 
	C528.286865,679.223816 536.830872,680.372131 545.364685,681.575012 
	C552.916565,682.639526 560.468384,683.715332 568.039673,684.624390 
	C570.250732,684.889893 573.075134,685.401367 573.424988,681.948792 
	C573.767151,678.572327 567.761414,671.459290 564.328064,671.473877 
	C549.239563,671.537781 534.152100,671.824951 518.390991,672.143860 
M555.236877,630.959595 
	C555.957825,627.715820 556.647827,624.464844 557.407471,621.230103 
	C558.443787,616.816895 556.079834,613.869568 553.486938,610.625610 
	C552.774231,611.451111 552.314636,611.764771 552.165405,612.187927 
	C547.823669,624.502380 545.640076,637.248169 544.631470,650.224609 
	C544.481384,652.154846 545.530029,653.008606 547.327393,652.950562 
	C549.111877,652.892822 550.989685,653.215942 552.788452,651.940491 
	C552.171631,645.120544 554.179871,638.523071 555.236877,630.959595 
M617.443848,818.074280 
	C612.820435,813.663635 608.197021,809.252930 603.318787,804.599121 
	C600.816406,809.911194 600.919678,813.767090 605.266357,817.525940 
	C610.040588,821.654419 614.835632,825.773438 619.536133,829.984131 
	C623.318604,833.372375 626.557861,832.513611 630.672363,829.898132 
	C626.995178,825.166504 621.886475,822.491028 617.443848,818.074280 
M526.893005,662.372925 
	C520.779846,663.539001 514.411194,663.579651 508.659515,666.505615 
	C527.086670,666.552673 544.961426,662.665100 562.976990,659.713257 
	C551.024597,658.096313 539.592773,662.347229 526.893005,662.372925 
M611.027466,835.181946 
	C611.929321,834.709412 613.967163,834.541565 612.450562,833.004395 
	C608.817383,829.322327 605.292725,825.424683 600.197205,822.544373 
	C599.096924,827.571228 598.156799,831.866089 597.172424,836.363403 
	C601.734985,837.948547 605.989563,835.913635 611.027466,835.181946 
M563.688049,642.689331 
	C563.683655,639.903564 563.058411,637.254517 561.926697,633.550842 
	C559.979126,639.901855 559.097290,645.274109 558.837341,650.935547 
	C564.606750,650.876831 563.703125,646.929321 563.688049,642.689331 
M548.024353,603.841370 
	C548.396240,602.417358 548.970154,600.937317 546.772217,600.008911 
	C544.674866,602.530457 545.281555,605.366089 545.319702,608.520996 
	C547.147034,607.348877 547.149780,605.720703 548.024353,603.841370 
z"/>
<path fill="#000000" opacity="1.000000" stroke="none" 
	d="
M319.973145,235.939362 
	C326.068420,232.143997 331.814362,228.467575 337.667358,224.970306 
	C340.971375,222.996078 344.631531,221.766724 348.421570,221.103607 
	C359.053680,219.243347 367.748596,229.477097 364.188080,239.632141 
	C363.591766,241.332886 362.772095,242.955307 362.073181,244.573303 
	C363.234497,245.842117 364.368317,244.907013 365.411102,244.818527 
	C378.766083,243.685226 388.007416,256.386688 382.842255,268.846863 
	C380.524567,274.437927 376.397736,278.512909 371.483490,281.795502 
	C363.597382,287.063171 355.573517,292.124847 347.695099,297.403748 
	C345.217621,299.063812 343.666138,298.838776 342.012970,296.268463 
	C331.481781,279.894836 320.890961,263.559021 310.208557,247.283737 
	C308.354034,244.458298 309.028656,242.865555 311.725922,241.312042 
	C314.460571,239.736984 317.027954,237.871521 319.973145,235.939362 
M362.185547,269.363495 
	C363.395020,266.292664 363.504242,263.159576 360.138397,261.701569 
	C355.002991,259.477020 351.527893,262.985291 348.007751,265.880951 
	C353.556274,277.780487 354.342438,277.154999 362.185547,269.363495 
M342.386383,240.391678 
	C338.972565,240.661285 336.166199,242.094391 333.664551,244.824127 
	C335.895355,247.618591 336.189423,252.515427 340.303192,252.550003 
	C343.072266,252.573257 346.014587,250.019379 346.724915,246.518799 
	C347.339569,243.489639 346.185211,241.378296 342.386383,240.391678 
z"/>
<path fill="#000000" opacity="1.000000" stroke="none" 
	d="
M507.943085,179.032806 
	C507.075867,182.065231 504.997925,181.216614 503.353607,180.852631 
	C498.153076,179.701431 493.043427,180.435837 488.002808,181.534195 
	C479.247864,183.441956 474.066284,191.547714 475.684326,200.405365 
	C477.728912,211.598129 483.298096,216.762466 492.302338,215.615814 
	C494.424713,215.345551 497.225952,215.616669 496.888672,211.878281 
	C496.570587,208.352386 495.056122,206.667740 491.413116,207.301666 
	C490.430542,207.472656 489.434723,207.566055 488.448395,207.717224 
	C487.790833,207.817993 487.071320,208.202606 486.495483,208.042740 
	C480.569855,206.397324 483.510162,200.803741 481.872925,197.219910 
	C480.925934,195.147003 480.976044,192.516708 484.414673,191.958054 
	C492.789368,190.597473 501.154297,189.176437 509.520996,187.767120 
	C512.474365,187.269638 514.250000,188.195114 514.752197,191.414612 
	C516.212097,200.774475 517.805908,210.113586 519.372864,219.456528 
	C519.730835,221.590988 519.515015,223.383362 517.359558,224.559677 
	C504.122925,231.783371 490.277435,236.054092 475.207733,231.746231 
	C462.326294,228.063873 454.341064,216.497086 453.695984,201.776260 
	C452.922424,184.123306 462.001709,171.296341 478.888062,166.134552 
	C486.307922,163.866470 493.894989,163.369232 501.603790,163.626038 
	C504.531464,163.723572 505.789551,165.101761 506.192871,167.772491 
	C506.739044,171.389191 507.354889,174.995377 507.943085,179.032806 
z"/>
<path fill="#000000" opacity="1.000000" stroke="none" 
	d="
M217.377350,597.239990 
	C218.660843,597.106079 219.489594,597.007385 220.320999,596.973083 
	C226.849884,596.703552 227.161438,596.997864 227.313095,603.419006 
	C227.376007,606.082764 227.018234,608.850647 227.622528,611.387573 
	C228.828781,616.451538 226.661331,617.911804 222.031677,618.100159 
	C206.560349,618.729370 191.097122,619.557922 175.630447,620.302490 
	C174.299423,620.366638 172.964828,620.355103 171.633423,620.413391 
	C161.942902,620.837402 161.615311,620.858276 161.089600,611.322754 
	C160.605255,602.537231 159.881500,593.731750 160.588898,584.898499 
	C161.342682,575.486145 165.551407,568.978882 172.473801,566.996826 
	C181.269577,564.478516 188.202927,567.123413 194.059235,575.217896 
	C194.539291,575.881470 195.082703,576.499146 195.968918,577.600952 
	C202.961090,567.930664 213.952316,565.615295 224.806763,560.268860 
	C225.268723,568.217346 225.791122,575.058533 225.983231,581.908997 
	C226.036133,583.794922 223.917953,584.342773 222.407135,584.991028 
	C218.582077,586.632324 214.664032,588.072021 210.909653,589.858154 
	C207.975052,591.254272 204.925003,592.780945 204.457764,596.978333 
	C208.766800,598.372559 212.855835,597.603943 217.377350,597.239990 
M180.982300,599.146179 
	C183.503494,598.157288 187.462891,600.654907 188.576965,596.562988 
	C189.357300,593.696899 188.010117,590.957031 185.467377,589.269165 
	C182.920731,587.578735 180.124039,587.573730 177.582413,589.358276 
	C174.673401,591.400818 174.953186,594.544006 175.403610,597.472595 
	C175.866959,600.485168 178.288269,599.370178 180.982300,599.146179 
z"/>
<path fill="#000000" opacity="1.000000" stroke="none" 
	d="
M385.300842,217.604568 
	C384.631012,213.743408 384.516327,210.152512 383.424957,206.888153 
	C381.774933,201.952972 383.808868,199.568405 388.006775,197.590851 
	C392.360382,195.539963 396.511475,193.040421 400.665405,190.591705 
	C403.130005,189.138855 405.100891,189.083359 407.333862,191.196167 
	C422.679108,205.715698 438.113220,220.141296 453.503723,234.613068 
	C453.843964,234.933014 454.006683,235.441803 454.655823,236.553940 
	C449.116913,240.389740 443.149872,243.470230 437.128601,246.406891 
	C434.996643,247.446671 433.869629,245.330612 432.679352,244.033218 
	C426.638702,237.448990 428.516968,237.904129 420.527435,242.039520 
	C419.788971,242.421768 419.053528,242.810196 418.322723,243.206848 
	C411.182037,247.082489 411.073792,247.111710 413.088318,254.780289 
	C413.943848,258.037109 413.335297,260.036591 410.128571,261.573273 
	C405.212891,263.928955 400.504242,266.716522 394.424225,270.017639 
	C391.319061,252.088699 388.368927,235.054871 385.300842,217.604568 
M404.022430,220.720810 
	C405.176025,224.099197 405.138031,227.869110 407.417175,231.366013 
	C410.352570,230.111191 413.285950,229.232193 415.604126,226.245010 
	C411.798035,221.433731 407.652802,217.127945 402.326569,213.783783 
	C402.808472,215.846283 403.290375,217.908768 404.022430,220.720810 
z"/>
<path fill="#000000" opacity="1.000000" stroke="none" 
	d="
M217.572418,557.519531 
	C199.365662,548.433289 181.528076,539.438538 163.585144,530.659119 
	C160.258163,529.031189 158.803482,527.287842 159.567764,523.394226 
	C160.621597,518.025452 161.100815,512.538025 161.692703,507.086945 
	C161.966232,504.567841 163.122559,503.199127 165.642639,502.734070 
	C186.410034,498.901367 207.167847,495.016632 227.933258,491.173065 
	C228.550125,491.058868 229.218567,491.223328 230.535126,491.293884 
	C230.357162,498.051788 229.179352,504.541473 228.061905,511.018250 
	C227.654175,513.381409 225.453064,513.149841 223.641434,513.342834 
	C216.058838,514.150635 216.048523,514.160950 214.742310,521.546875 
	C214.511322,522.852966 214.648666,524.261169 214.230194,525.490967 
	C212.215836,531.410767 214.675919,534.445740 220.403564,535.669312 
	C223.774429,536.389404 224.883560,538.579041 224.297668,541.958618 
	C223.531815,546.376221 222.817184,550.819702 222.441620,555.282471 
	C222.142548,558.836365 220.629486,559.173218 217.572418,557.519531 
M183.820450,518.215881 
	C182.444275,518.546387 180.862000,517.829773 179.193512,519.340088 
	C185.548035,521.870361 191.604095,524.281738 197.337646,526.564697 
	C199.078934,525.259705 199.159180,523.858276 199.411987,522.596802 
	C200.523743,517.049438 199.698898,516.230408 194.015854,516.991516 
	C190.893234,517.409668 187.763657,517.775818 183.820450,518.215881 
z"/>
<path fill="#000000" opacity="1.000000" stroke="none" 
	d="
M170.896347,461.125916 
	C171.280807,456.002991 174.073624,454.895020 178.399872,454.825348 
	C190.969620,454.622894 203.533310,454.043854 216.328384,452.680450 
	C205.148071,447.296173 194.105148,441.594269 182.725143,436.671631 
	C177.609406,434.458771 176.347427,431.683594 178.088699,426.779358 
	C179.578842,422.582367 179.353455,417.921173 181.349716,413.687042 
	C185.131821,414.039032 187.933899,416.287598 190.884109,417.972473 
	C206.344604,426.801880 221.658951,435.887939 237.149094,444.664215 
	C240.608276,446.624084 242.106781,448.688812 240.672836,452.624542 
	C239.941940,454.630585 239.792267,456.847229 239.367722,458.966217 
	C237.237259,469.599823 237.259521,469.815125 226.554337,470.990814 
	C208.210815,473.005402 189.834229,474.718414 171.472366,476.566681 
	C170.478912,476.666718 169.483414,476.907959 168.346207,475.831451 
	C168.263382,471.086731 170.209564,466.411194 170.896347,461.125916 
z"/>
<path fill="#000000" opacity="1.000000" stroke="none" 
	d="
M776.012756,234.897781 
	C769.673340,245.517288 771.443542,244.671921 761.624023,238.907745 
	C758.768860,237.231750 755.894958,235.587845 753.004883,233.914902 
	C750.555603,235.583008 749.910339,238.017639 748.376404,240.690170 
	C752.831360,243.393921 756.994202,246.047745 761.283875,248.477524 
	C763.992676,250.011810 764.587891,251.535950 762.934021,254.455048 
	C756.923340,265.064026 757.024902,265.115570 746.434692,258.946716 
	C744.436035,257.782501 742.407166,256.670044 740.481384,255.583954 
	C737.688660,258.047119 737.688660,258.047119 735.751892,262.277832 
	C740.430237,265.124634 745.115295,268.185669 750.003235,270.878387 
	C753.454834,272.779846 754.349854,274.574036 752.051392,278.271698 
	C746.072205,287.890656 746.239868,287.987457 736.436829,282.153381 
	C728.565735,277.469055 720.733948,272.715485 712.784668,268.167419 
	C709.778137,266.447266 709.407776,264.720581 711.187073,261.767639 
	C721.070984,245.363907 730.868042,228.906998 740.553101,212.385178 
	C742.354187,209.312744 744.135254,209.130066 746.974060,210.857635 
	C756.077576,216.397675 765.205139,221.905792 774.465393,227.176865 
	C778.049316,229.216858 778.862976,231.349823 776.012756,234.897781 
z"/>
<path fill="#000000" opacity="1.000000" stroke="none" 
	d="
M204.044006,399.056000 
	C191.651520,392.847260 191.854126,395.969604 198.050323,382.634552 
	C201.558945,375.083527 205.286652,367.632538 208.695755,360.037811 
	C210.144745,356.809814 211.889999,356.488708 214.955780,357.860443 
	C225.535599,362.594055 225.574234,362.507568 220.698807,373.262604 
	C220.011551,374.778625 219.414200,376.343719 218.618484,377.800446 
	C217.229553,380.343231 216.908142,382.225586 220.247971,383.697723 
	C223.212769,385.004547 224.861038,384.511139 226.127045,381.582611 
	C227.645966,378.069122 228.891190,374.290070 231.118271,371.260681 
	C235.752808,364.956635 239.242401,372.400299 243.373642,372.900299 
	C246.071304,373.226807 247.823639,374.987244 246.071564,378.286194 
	C244.121826,381.957336 242.600189,385.854004 240.700989,389.554352 
	C239.247162,392.386932 240.807190,393.373383 243.028610,394.384216 
	C245.201279,395.372925 247.010956,396.055725 248.309113,393.157227 
	C250.350677,388.598785 252.622437,384.143677 254.682297,379.593018 
	C255.888351,376.928619 257.465057,376.410858 260.237213,377.516968 
	C271.933868,382.184235 271.942413,382.101562 266.552521,393.423523 
	C262.688080,401.541077 258.744385,409.626160 255.127228,417.853729 
	C253.609360,421.306274 251.937531,421.771149 248.628662,420.171539 
	C233.937363,413.069366 219.145493,406.175171 204.044006,399.056000 
z"/>
<path fill="#000000" opacity="1.000000" stroke="none" 
	d="
M711.463989,234.333679 
	C710.157898,238.692993 707.916138,239.477768 704.241882,237.421951 
	C701.493652,235.884277 698.414551,234.949203 695.599915,233.515884 
	C692.565674,231.970779 690.712280,232.578781 689.417786,235.816772 
	C687.688782,240.141800 685.588806,244.317307 683.804260,248.621750 
	C682.716614,251.245255 681.339478,252.333801 678.480103,250.919739 
	C674.751648,249.075897 670.936584,247.390991 667.086731,245.813538 
	C663.850586,244.487534 663.524719,242.596481 664.904907,239.538788 
	C672.714111,222.237473 680.420959,204.889450 688.052856,187.509125 
	C689.461487,184.301178 690.971069,183.274826 694.488403,184.940613 
	C704.417358,189.642929 714.479736,194.070740 724.568420,198.423859 
	C727.456787,199.670151 728.248535,201.030960 727.025452,204.108719 
	C722.499329,215.497650 722.591431,215.534195 711.264709,210.706161 
	C710.958313,210.575562 710.649231,210.451324 710.343445,210.319382 
	C701.600525,206.547104 701.396118,206.649719 698.846436,216.237839 
	C702.069397,218.913528 706.214233,219.863510 709.930908,221.633621 
	C715.789917,224.423996 715.841675,224.321671 713.239075,230.338181 
	C712.710266,231.560547 712.154602,232.771347 711.463989,234.333679 
z"/>
<path fill="#000000" opacity="1.000000" stroke="none" 
	d="
M211.626556,669.768921 
	C207.045227,670.972900 202.901627,672.295166 198.657623,673.061279 
	C194.376846,673.833984 193.461563,676.028320 194.878510,679.775696 
	C194.995850,680.085999 195.086823,680.409424 195.156799,680.733948 
	C198.154297,694.634521 200.196457,691.096069 186.038589,695.341187 
	C183.033585,696.242126 181.784073,695.096436 181.084991,692.333191 
	C177.047318,676.373962 172.964600,660.425964 168.840866,644.488770 
	C168.029709,641.353821 169.200943,640.003784 172.266006,639.265503 
	C186.049545,635.945007 183.015793,634.728943 186.500931,647.325378 
	C188.406723,654.213562 188.317078,654.268921 195.156189,652.514343 
	C207.396866,649.374084 219.653549,646.290283 231.846191,642.972046 
	C235.257935,642.043457 237.178818,642.488220 237.920807,646.266296 
	C238.656296,650.011230 239.613083,653.733704 240.781693,657.366577 
	C241.933380,660.946777 240.709457,662.539551 237.186661,663.360718 
	C228.767212,665.323486 220.405350,667.533264 211.626556,669.768921 
z"/>
<path fill="#000000" opacity="1.000000" stroke="none" 
	d="
M232.782745,324.700409 
	C234.837479,321.078583 236.905899,321.844696 239.458084,323.738953 
	C249.348602,331.079712 259.337982,338.287445 269.302826,345.527832 
	C275.952637,350.359589 275.953613,350.340851 280.624847,343.862823 
	C282.572083,341.162445 284.722595,338.593903 286.490997,335.783203 
	C288.406067,332.739471 290.388519,332.752319 292.964569,334.860779 
	C295.022675,336.545349 297.201569,338.092590 299.402557,339.589478 
	C301.619629,341.097321 302.043182,342.628143 300.338898,344.938721 
	C293.225555,354.582764 286.174774,364.274414 279.232208,374.041840 
	C277.497284,376.482666 275.906616,376.215851 273.847931,374.709137 
	C257.997345,363.108368 242.149734,351.503296 226.244431,339.977875 
	C223.947052,338.313110 223.767365,336.878815 225.513550,334.684082 
	C227.998322,331.561035 230.228928,328.235748 232.782745,324.700409 
z"/>
<path fill="#000000" opacity="1.000000" stroke="none" 
	d="
M624.514893,231.402588 
	C623.938171,234.316772 622.212097,234.356125 620.229614,233.979919 
	C608.642578,231.781036 597.071655,229.487900 585.452576,227.472733 
	C582.033264,226.879684 581.511230,225.216782 582.074097,222.261337 
	C585.646729,203.502106 589.227173,184.743591 592.616638,165.950851 
	C593.291626,162.208466 594.868835,161.275116 598.420288,162.203842 
	C601.945618,163.125732 605.578979,163.716583 609.200562,164.165375 
	C612.841492,164.616577 613.868347,166.322525 613.174133,169.880905 
	C610.630188,182.921936 608.469177,196.040375 605.747009,209.042343 
	C604.854492,213.305237 606.161438,214.796738 610.095886,215.323578 
	C614.209961,215.874451 618.254761,217.002518 622.376221,217.421738 
	C626.321960,217.823090 627.025085,219.812637 626.219238,223.180267 
	C625.601013,225.763840 625.149414,228.387283 624.514893,231.402588 
z"/>
<path fill="#000000" opacity="1.000000" stroke="none" 
	d="
M664.086426,175.774384 
	C667.757568,176.559906 668.668335,178.264542 667.731140,181.634201 
	C662.605164,200.064346 657.610229,218.531754 652.720398,237.026047 
	C651.814331,240.453064 650.165771,241.211456 646.956604,240.182617 
	C643.317871,239.016098 639.586731,238.129852 635.878174,237.191254 
	C632.799866,236.412170 631.480835,235.063644 632.481201,231.495316 
	C637.645020,213.075546 642.629639,194.604507 647.514954,176.108627 
	C648.383423,172.820740 649.689087,171.599060 653.098755,172.760757 
	C656.557922,173.939316 660.150269,174.726883 664.086426,175.774384 
z"/>
<path fill="#000000" opacity="1.000000" stroke="none" 
	d="
M449.947021,380.009949 
	C446.018433,380.977203 442.450378,381.785797 439.835358,385.296417 
	C442.255219,387.318817 444.511658,389.204651 447.819489,391.969177 
	C439.475586,392.288147 434.314301,397.590515 427.911560,400.322235 
	C425.667419,401.279694 423.014343,401.969238 420.628876,401.777100 
	C413.080139,401.169067 405.736542,402.098694 398.302765,403.225189 
	C394.721466,403.767883 390.937042,402.469330 387.915192,399.272186 
	C392.340271,395.076447 398.345337,395.022247 403.044464,391.754730 
	C401.904144,387.188843 400.238739,383.124664 395.979675,380.338593 
	C387.250427,374.628448 379.681183,367.663849 374.047455,358.772644 
	C372.537598,356.389801 370.955261,354.005554 372.197174,350.966522 
	C374.844757,350.403320 376.454559,352.100311 378.178192,353.260864 
	C386.617554,358.943237 395.072327,364.589386 404.738708,368.050476 
	C409.280090,369.676514 411.706573,373.545837 414.578522,376.984711 
	C419.917847,383.378082 420.262848,383.239990 428.052734,380.678986 
	C435.206238,378.327209 442.074646,375.585144 448.466583,371.502319 
	C453.433441,368.329742 460.166901,368.813019 464.163055,363.569153 
	C467.485107,368.880554 465.920471,374.430939 460.898682,376.992126 
	C457.582245,378.683533 453.862091,378.952148 449.947021,380.009949 
z"/>
<path fill="#000000" opacity="1.000000" stroke="none" 
	d="
M688.620483,450.666748 
	C692.026062,449.608551 693.833313,451.181793 694.653564,453.817657 
	C695.345032,456.039673 693.984680,457.637390 692.049438,458.623169 
	C689.915344,459.710236 688.147339,458.984161 686.859619,457.147308 
	C685.060669,454.581146 685.805847,452.481140 688.620483,450.666748 
z"/>
<path fill="#000000" opacity="1.000000" stroke="none" 
	d="
M707.588806,446.428986 
	C710.955688,445.374573 712.837891,446.842804 713.684692,449.497955 
	C714.493469,452.034088 712.751221,453.544067 710.700439,454.546814 
	C708.717224,455.516510 707.123779,454.653290 705.978027,453.001556 
	C704.234253,450.487579 704.755554,448.330566 707.588806,446.428986 
z"/>
<path fill="#000000" opacity="1.000000" stroke="none" 
	d="
M727.288879,452.037140 
	C724.142273,450.208801 722.603455,448.035126 725.089111,445.063477 
	C726.464844,443.418732 728.490601,442.881195 730.493408,444.015228 
	C732.175842,444.967865 733.310547,446.534729 732.852478,448.546326 
	C732.252441,451.181427 730.365417,452.328766 727.288879,452.037140 
z"/>
<path fill="#000000" opacity="1.000000" stroke="none" 
	d="
M783.030090,451.638702 
	C782.711853,448.282715 784.077515,446.306671 787.021118,446.079803 
	C789.521851,445.887054 790.996094,447.633087 791.404114,450.003632 
	C791.808838,452.355377 790.401672,453.791016 788.368713,454.558167 
	C785.814270,455.522156 784.289185,454.090088 783.030090,451.638702 
z"/>
<path fill="#000000" opacity="1.000000" stroke="none" 
	d="
M802.347778,456.389343 
	C801.303772,452.747498 802.908020,450.903381 805.936401,450.399200 
	C808.184692,450.024902 809.683472,451.514435 810.291687,453.593506 
	C811.023254,456.093719 809.677673,457.729187 807.523621,458.687347 
	C805.295166,459.678589 803.764465,458.489807 802.347778,456.389343 
z"/>
<path fill="#000000" opacity="1.000000" stroke="none" 
	d="
M771.149048,445.199524 
	C772.967468,448.261475 772.061035,450.344147 769.466797,451.714935 
	C767.666565,452.666260 765.840759,452.303955 764.531555,450.674988 
	C763.128174,448.928741 762.950500,446.915436 764.430237,445.189178 
	C766.384338,442.909515 768.657898,442.771362 771.149048,445.199524 
z"/>
<path fill="#000000" opacity="1.000000" stroke="none" 
	d="
M676.148682,460.885437 
	C675.124084,464.021057 673.248596,465.463104 670.357544,464.485962 
	C668.166016,463.745270 667.507385,461.807434 667.915710,459.596924 
	C668.292725,457.555695 669.622131,456.202209 671.644531,456.158020 
	C674.400208,456.097778 675.838013,457.818268 676.148682,460.885437 
z"/>
<path fill="#000000" opacity="1.000000" stroke="none" 
	d="
M748.036865,619.000000 
	C748.037109,553.596680 748.037109,488.693329 748.037109,423.385590 
	C750.355835,424.245087 750.083740,426.004944 750.264404,427.483124 
	C754.881897,465.256775 759.492310,503.031281 764.100281,540.806091 
	C768.006042,572.824829 771.894592,604.845703 775.844116,636.859070 
	C776.064209,638.643250 775.934021,640.182983 774.660706,641.472534 
	C767.061707,649.168884 759.453674,656.856506 751.825684,664.524048 
	C751.128723,665.224609 750.295166,665.832214 748.036621,665.231628 
	C748.036621,650.207520 748.036621,634.853760 748.036865,619.000000 
z"/>
<path fill="#000000" opacity="1.000000" stroke="none" 
	d="
M711.340637,703.925537 
	C711.573547,705.553711 710.641724,706.322937 709.827881,707.141296 
	C698.081421,718.952881 686.332092,730.761658 674.562073,742.549805 
	C674.134216,742.978271 673.486633,743.187378 673.054199,743.434326 
	C671.584595,742.641235 672.055115,741.603149 672.294373,740.697510 
	C675.483398,728.627258 678.800415,716.589661 681.848022,704.484070 
	C682.881836,700.377563 685.049683,699.154541 689.057373,699.900208 
	C696.395142,701.265381 703.776794,702.394897 711.340637,703.925537 
z"/>
<path fill="#000000" opacity="1.000000" stroke="none" 
	d="
M815.315796,605.315796 
	C817.668884,603.287109 819.156982,600.693909 821.994507,599.986328 
	C823.391907,600.742126 822.878357,601.780396 822.634705,602.683044 
	C819.430176,614.555359 816.204590,626.422058 812.972290,638.286865 
	C812.425049,640.295471 811.626648,642.379089 809.116638,642.114136 
	C800.780640,641.234558 792.410339,640.471741 782.892700,638.049744 
	C794.163452,626.670105 804.615234,616.117432 815.315796,605.315796 
z"/>
<path fill="#000000" opacity="1.000000" stroke="none" 
	d="
M687.047852,597.856079 
	C696.552979,600.517639 705.655579,603.123291 714.808655,605.537170 
	C717.973206,606.371643 719.221680,607.866394 718.537048,611.238953 
	C717.003601,618.793335 717.067322,626.641052 714.957581,633.811035 
	C702.298523,620.982849 689.829956,608.347717 677.499390,595.852356 
	C680.249023,595.501648 683.403076,596.990906 687.047852,597.856079 
z"/>
<path fill="#000000" opacity="1.000000" stroke="none" 
	d="
M556.384521,786.676270 
	C552.844238,787.666687 550.799622,786.227966 550.105957,783.269470 
	C549.539001,780.851318 550.959595,779.143921 553.302429,778.446472 
	C555.743713,777.719727 557.500183,778.843384 558.564819,780.971375 
	C559.745850,783.332153 558.583313,785.060425 556.384521,786.676270 
z"/>
<path fill="#000000" opacity="1.000000" stroke="none" 
	d="
M539.337402,751.615906 
	C536.191711,752.250305 534.507629,750.897339 533.872803,748.329102 
	C533.359131,746.250854 533.874512,744.314270 535.983643,743.286316 
	C537.774902,742.413330 539.709290,742.531372 541.009644,744.052856 
	C543.463257,746.923645 542.803894,749.477173 539.337402,751.615906 
z"/>
<path fill="#000000" opacity="1.000000" stroke="none" 
	d="
M545.868530,769.818970 
	C541.991455,769.126831 540.254089,767.142822 541.527344,763.545471 
	C542.176392,761.711975 543.819824,760.757935 545.839233,760.959045 
	C547.801758,761.154541 549.304626,762.223938 549.736572,764.174744 
	C550.376099,767.062622 548.932190,768.851868 545.868530,769.818970 
z"/>
<path fill="#000000" opacity="1.000000" stroke="none" 
	d="
M529.104614,731.867676 
	C527.261292,729.383789 527.303650,727.270203 529.241516,725.346985 
	C530.707764,723.891785 532.406799,723.676086 534.201782,724.751709 
	C535.931396,725.788025 536.698364,727.368530 536.490295,729.341125 
	C536.140808,732.654663 533.579285,733.650330 529.104614,731.867676 
z"/>
<path fill="#000000" opacity="1.000000" stroke="none" 
	d="
M523.708740,708.450195 
	C525.321533,704.916870 527.747559,704.039429 530.559570,706.152283 
	C532.905212,707.914612 532.862366,710.393738 530.996582,712.650452 
	C529.851379,714.035583 528.289978,714.522522 526.553528,713.878418 
	C524.212158,713.009827 523.316040,711.243286 523.708740,708.450195 
z"/>
<path fill="#000000" opacity="1.000000" stroke="none" 
	d="
M621.986023,801.321716 
	C619.927307,802.491516 618.422668,802.214600 617.362427,800.522217 
	C616.389771,798.969727 617.134949,797.567627 618.215637,796.468323 
	C623.700195,790.889587 629.207764,785.332031 634.791077,779.852539 
	C636.290466,778.380981 638.197510,777.377991 640.000061,779.424316 
	C641.787842,781.453674 640.467896,783.161682 638.998047,784.627319 
	C633.459106,790.150574 627.875061,795.628479 621.986023,801.321716 
z"/>
<path fill="#000000" opacity="1.000000" stroke="none" 
	d="
M527.076416,654.132385 
	C524.832825,655.501160 523.291321,654.835083 522.137878,653.126465 
	C521.155212,651.670715 520.857483,650.066589 521.932007,648.498962 
	C522.834229,647.182739 524.117798,646.510620 525.739197,646.648438 
	C529.014038,646.926819 529.569519,649.435669 527.076416,654.132385 
z"/>
</svg>